<svg id="visual" viewBox="0 0 1280 120" width="1280" height="120" xmlns="http://www.w3.org/2000/svg" xmlns:xlink="http://www.w3.org/1999/xlink" version="1.1"><path d="M0 64L15.2 61.5C30.3 59 60.7 54 91.2 50.8C121.7 47.7 152.3 46.3 182.8 48.8C213.3 51.3 243.7 57.7 274.2 59.7C304.7 61.7 335.3 59.3 365.8 57.5C396.3 55.7 426.7 54.3 457.2 60.7C487.7 67 518.3 81 548.8 83.3C579.3 85.7 609.7 76.3 640 76.5C670.3 76.7 700.7 86.3 731.2 84.8C761.7 83.3 792.3 70.7 822.8 68.7C853.3 66.7 883.7 75.3 914.2 83.5C944.7 91.7 975.3 99.3 1005.8 92.7C1036.3 86 1066.7 65 1097.2 64.7C1127.7 64.3 1158.3 84.7 1188.8 92.8C1219.3 101 1249.7 97 1264.8 95L1280 93L1280 0L1264.8 0C1249.7 0 1219.3 0 1188.8 0C1158.3 0 1127.7 0 1097.2 0C1066.7 0 1036.3 0 1005.8 0C975.3 0 944.7 0 914.2 0C883.7 0 853.3 0 822.8 0C792.3 0 761.7 0 731.2 0C700.7 0 670.3 0 640 0C609.7 0 579.3 0 548.8 0C518.3 0 487.7 0 457.2 0C426.7 0 396.3 0 365.8 0C335.3 0 304.7 0 274.2 0C243.7 0 213.3 0 182.8 0C152.3 0 121.7 0 91.2 0C60.7 0 30.3 0 15.2 0L0 0Z" fill="#1cb5e0"></path><path d="M0 95L15.2 93.8C30.3 92.7 60.7 90.3 91.2 81C121.7 71.7 152.3 55.3 182.8 54.3C213.3 53.3 243.7 67.7 274.2 70.8C304.7 74 335.3 66 365.8 58.7C396.3 51.3 426.7 44.7 457.2 46.8C487.7 49 518.3 60 548.8 66.3C579.3 72.7 609.7 74.3 640 71.3C670.3 68.3 700.7 60.7 731.2 56.2C761.7 51.7 792.3 50.3 822.8 50.5C853.3 50.7 883.7 52.3 914.2 57.2C944.7 62 975.3 70 1005.8 68C1036.3 66 1066.7 54 1097.2 54C1127.7 54 1158.3 66 1188.8 69.8C1219.3 73.7 1249.7 69.3 1264.8 67.2L1280 65L1280 0L1264.8 0C1249.7 0 1219.3 0 1188.8 0C1158.3 0 1127.7 0 1097.2 0C1066.7 0 1036.3 0 1005.8 0C975.3 0 944.7 0 914.2 0C883.7 0 853.3 0 822.8 0C792.3 0 761.7 0 731.2 0C700.7 0 670.3 0 640 0C609.7 0 579.3 0 548.8 0C518.3 0 487.7 0 457.2 0C426.7 0 396.3 0 365.8 0C335.3 0 304.7 0 274.2 0C243.7 0 213.3 0 182.8 0C152.3 0 121.7 0 91.2 0C60.7 0 30.3 0 15.2 0L0 0Z" fill="#0096cc"></path><path d="M0 34L15.2 35.8C30.3 37.7 60.7 41.3 91.2 40.8C121.7 40.3 152.3 35.7 182.8 34.8C213.3 34 243.7 37 274.2 44.7C304.7 52.3 335.3 64.7 365.8 71.7C396.3 78.7 426.7 80.3 457.2 77.5C487.7 74.7 518.3 67.3 548.8 65C579.3 62.7 609.7 65.3 640 66.8C670.3 68.3 700.7 68.7 731.2 70.3C761.7 72 792.3 75 822.8 74.5C853.3 74 883.7 70 914.2 62.7C944.7 55.3 975.3 44.7 1005.8 43C1036.3 41.3 1066.7 48.7 1097.2 55.3C1127.7 62 1158.3 68 1188.8 66.5C1219.3 65 1249.7 56 1264.8 51.5L1280 47L1280 0L1264.8 0C1249.7 0 1219.3 0 1188.8 0C1158.3 0 1127.7 0 1097.2 0C1066.7 0 1036.3 0 1005.8 0C975.3 0 944.7 0 914.2 0C883.7 0 853.3 0 822.8 0C792.3 0 761.7 0 731.2 0C700.7 0 670.3 0 640 0C609.7 0 579.3 0 548.8 0C518.3 0 487.7 0 457.2 0C426.7 0 396.3 0 365.8 0C335.3 0 304.7 0 274.2 0C243.7 0 213.3 0 182.8 0C152.3 0 121.7 0 91.2 0C60.7 0 30.3 0 15.2 0L0 0Z" fill="#0078b6"></path><path d="M0 39L15.2 40.7C30.3 42.3 60.7 45.7 91.2 50.2C121.7 54.7 152.3 60.3 182.8 59.3C213.3 58.3 243.7 50.7 274.2 46.3C304.7 42 335.3 41 365.8 41.7C396.3 42.3 426.7 44.7 457.2 44.3C487.7 44 518.3 41 548.8 44.5C579.3 48 609.7 58 640 57.5C670.3 57 700.7 46 731.2 41C761.7 36 792.3 37 822.8 36.7C853.3 36.3 883.7 34.7 914.2 34.2C944.7 33.7 975.3 34.3 1005.8 34.2C1036.3 34 1066.7 33 1097.2 32.5C1127.7 32 1158.3 32 1188.8 36C1219.3 40 1249.7 48 1264.8 52L1280 56L1280 0L1264.8 0C1249.7 0 1219.3 0 1188.8 0C1158.3 0 1127.7 0 1097.2 0C1066.7 0 1036.3 0 1005.8 0C975.3 0 944.7 0 914.2 0C883.7 0 853.3 0 822.8 0C792.3 0 761.7 0 731.2 0C700.7 0 670.3 0 640 0C609.7 0 579.3 0 548.8 0C518.3 0 487.7 0 457.2 0C426.7 0 396.3 0 365.8 0C335.3 0 304.7 0 274.2 0C243.7 0 213.3 0 182.8 0C152.3 0 121.7 0 91.2 0C60.7 0 30.3 0 15.2 0L0 0Z" fill="#005a9c"></path><path d="M0 48L15.2 48.5C30.3 49 60.7 50 91.2 45.3C121.7 40.7 152.3 30.3 182.8 29C213.3 27.7 243.7 35.3 274.2 40.3C304.7 45.3 335.3 47.7 365.8 43.5C396.3 39.3 426.7 28.7 457.2 25.3C487.7 22 518.3 26 548.8 32C579.3 38 609.7 46 640 45.5C670.3 45 700.7 36 731.2 36C761.7 36 792.3 45 822.8 44.3C853.3 43.7 883.7 33.3 914.2 32.2C944.7 31 975.3 39 1005.8 43.7C1036.3 48.3 1066.7 49.7 1097.2 46.8C1127.7 44 1158.3 37 1188.8 35.3C1219.3 33.7 1249.7 37.3 1264.8 39.2L1280 41L1280 0L1264.8 0C1249.7 0 1219.3 0 1188.8 0C1158.3 0 1127.7 0 1097.2 0C1066.7 0 1036.3 0 1005.8 0C975.3 0 944.7 0 914.2 0C883.7 0 853.3 0 822.8 0C792.3 0 761.7 0 731.2 0C700.7 0 670.3 0 640 0C609.7 0 579.3 0 548.8 0C518.3 0 487.7 0 457.2 0C426.7 0 396.3 0 365.8 0C335.3 0 304.7 0 274.2 0C243.7 0 213.3 0 182.8 0C152.3 0 121.7 0 91.2 0C60.7 0 30.3 0 15.2 0L0 0Z" fill="#003d80"></path><path d="M0 16L15.2 15.5C30.3 15 60.7 14 91.2 15.5C121.7 17 152.3 21 182.8 21.5C213.3 22 243.7 19 274.2 18.5C304.7 18 335.3 20 365.8 20.5C396.3 21 426.7 20 457.2 22C487.7 24 518.3 29 548.8 27.5C579.3 26 609.7 18 640 16.7C670.3 15.3 700.7 20.7 731.2 23.5C761.7 26.3 792.3 26.7 822.8 25.3C853.3 24 883.7 21 914.2 18C944.7 15 975.3 12 1005.8 12.3C1036.3 12.7 1066.7 16.3 1097.2 21.3C1127.7 26.3 1158.3 32.7 1188.8 31.3C1219.3 30 1249.7 21 1264.8 16.5L1280 12L1280 0L1264.8 0C1249.7 0 1219.3 0 1188.8 0C1158.3 0 1127.7 0 1097.2 0C1066.7 0 1036.3 0 1005.8 0C975.3 0 944.7 0 914.2 0C883.7 0 853.3 0 822.8 0C792.3 0 761.7 0 731.2 0C700.7 0 670.3 0 640 0C609.7 0 579.3 0 548.8 0C518.3 0 487.7 0 457.2 0C426.7 0 396.3 0 365.8 0C335.3 0 304.7 0 274.2 0C243.7 0 213.3 0 182.8 0C152.3 0 121.7 0 91.2 0C60.7 0 30.3 0 15.2 0L0 0Z" fill="#002064"></path><path d="M0 16L15.2 15.8C30.3 15.7 60.7 15.3 91.2 16C121.7 16.7 152.3 18.3 182.8 19.3C213.3 20.3 243.7 20.7 274.2 20.3C304.7 20 335.3 19 365.8 16.3C396.3 13.7 426.7 9.3 457.2 10C487.7 10.7 518.3 16.3 548.8 17.7C579.3 19 609.7 16 640 13.2C670.3 10.3 700.7 7.7 731.2 9.7C761.7 11.7 792.3 18.3 822.8 19.2C853.3 20 883.7 15 914.2 14.3C944.7 13.7 975.3 17.3 1005.8 18.5C1036.3 19.7 1066.7 18.3 1097.2 16.8C1127.7 15.3 1158.3 13.7 1188.8 13C1219.3 12.3 1249.7 12.7 1264.8 12.8L1280 13L1280 0L1264.8 0C1249.7 0 1219.3 0 1188.8 0C1158.3 0 1127.7 0 1097.2 0C1066.7 0 1036.3 0 1005.8 0C975.3 0 944.7 0 914.2 0C883.7 0 853.3 0 822.8 0C792.3 0 761.7 0 731.2 0C700.7 0 670.3 0 640 0C609.7 0 579.3 0 548.8 0C518.3 0 487.7 0 457.2 0C426.7 0 396.3 0 365.8 0C335.3 0 304.7 0 274.2 0C243.7 0 213.3 0 182.8 0C152.3 0 121.7 0 91.2 0C60.7 0 30.3 0 15.2 0L0 0Z" fill="#000046"></path></svg>