<svg id="visual" viewBox="0 0 1280 100" width="1280" height="100" xmlns="http://www.w3.org/2000/svg" xmlns:xlink="http://www.w3.org/1999/xlink" version="1.1"><path d="M0 62L11.2 59.3C22.3 56.7 44.7 51.3 67.2 49.5C89.7 47.7 112.3 49.3 134.8 48.7C157.3 48 179.7 45 202 44C224.3 43 246.7 44 269.2 47C291.7 50 314.3 55 336.8 53.8C359.3 52.7 381.7 45.3 404.2 42.7C426.7 40 449.3 42 471.8 43.7C494.3 45.3 516.7 46.7 539 47.5C561.3 48.3 583.7 48.7 606.2 47C628.7 45.3 651.3 41.7 673.8 40C696.3 38.3 718.7 38.7 741 40.2C763.3 41.7 785.7 44.3 808.2 43.7C830.7 43 853.3 39 875.8 37.3C898.3 35.7 920.7 36.3 943.2 38C965.7 39.7 988.3 42.3 1010.8 45.8C1033.3 49.3 1055.7 53.7 1078 55.2C1100.3 56.7 1122.7 55.3 1145.2 52.5C1167.7 49.7 1190.3 45.3 1212.8 43.5C1235.3 41.7 1257.7 42.3 1268.8 42.7L1280 43L1280 101L1268.8 101C1257.7 101 1235.3 101 1212.8 101C1190.3 101 1167.7 101 1145.2 101C1122.7 101 1100.3 101 1078 101C1055.7 101 1033.3 101 1010.8 101C988.3 101 965.7 101 943.2 101C920.7 101 898.3 101 875.8 101C853.3 101 830.7 101 808.2 101C785.7 101 763.3 101 741 101C718.7 101 696.3 101 673.8 101C651.3 101 628.7 101 606.2 101C583.7 101 561.3 101 539 101C516.7 101 494.3 101 471.8 101C449.3 101 426.7 101 404.2 101C381.7 101 359.3 101 336.8 101C314.3 101 291.7 101 269.2 101C246.7 101 224.3 101 202 101C179.7 101 157.3 101 134.8 101C112.3 101 89.7 101 67.2 101C44.7 101 22.3 101 11.2 101L0 101Z" fill="#9cecfb"></path><path d="M0 49L11.2 48.2C22.3 47.3 44.7 45.7 67.2 48.7C89.7 51.7 112.3 59.3 134.8 60.8C157.3 62.3 179.7 57.7 202 56.8C224.3 56 246.7 59 269.2 59.8C291.7 60.7 314.3 59.3 336.8 57C359.3 54.7 381.7 51.3 404.2 51.2C426.7 51 449.3 54 471.8 56.8C494.3 59.7 516.7 62.3 539 59.7C561.3 57 583.7 49 606.2 46.3C628.7 43.7 651.3 46.3 673.8 47.2C696.3 48 718.7 47 741 49C763.3 51 785.7 56 808.2 59.5C830.7 63 853.3 65 875.8 63C898.3 61 920.7 55 943.2 52C965.7 49 988.3 49 1010.8 51.2C1033.3 53.3 1055.7 57.7 1078 56.3C1100.3 55 1122.7 48 1145.2 46.8C1167.7 45.7 1190.3 50.3 1212.8 54.7C1235.3 59 1257.7 63 1268.8 65L1280 67L1280 101L1268.8 101C1257.7 101 1235.3 101 1212.8 101C1190.3 101 1167.7 101 1145.2 101C1122.7 101 1100.3 101 1078 101C1055.7 101 1033.3 101 1010.8 101C988.3 101 965.7 101 943.2 101C920.7 101 898.3 101 875.8 101C853.3 101 830.7 101 808.2 101C785.7 101 763.3 101 741 101C718.7 101 696.3 101 673.8 101C651.3 101 628.7 101 606.2 101C583.7 101 561.3 101 539 101C516.7 101 494.3 101 471.8 101C449.3 101 426.7 101 404.2 101C381.7 101 359.3 101 336.8 101C314.3 101 291.7 101 269.2 101C246.7 101 224.3 101 202 101C179.7 101 157.3 101 134.8 101C112.3 101 89.7 101 67.2 101C44.7 101 22.3 101 11.2 101L0 101Z" fill="#aceffc"></path><path d="M0 58L11.2 58.5C22.3 59 44.7 60 67.2 61.8C89.7 63.7 112.3 66.3 134.8 64.7C157.3 63 179.7 57 202 57.3C224.3 57.7 246.7 64.3 269.2 63.8C291.7 63.3 314.3 55.7 336.8 55.8C359.3 56 381.7 64 404.2 64.2C426.7 64.3 449.3 56.7 471.8 56.2C494.3 55.7 516.7 62.3 539 62.7C561.3 63 583.7 57 606.2 56.5C628.7 56 651.3 61 673.8 61.5C696.3 62 718.7 58 741 57.8C763.3 57.7 785.7 61.3 808.2 61.8C830.7 62.3 853.3 59.7 875.8 57.8C898.3 56 920.7 55 943.2 57.5C965.7 60 988.3 66 1010.8 65.8C1033.3 65.7 1055.7 59.3 1078 56.7C1100.3 54 1122.7 55 1145.2 58.2C1167.7 61.3 1190.3 66.7 1212.8 65.8C1235.3 65 1257.7 58 1268.8 54.5L1280 51L1280 101L1268.8 101C1257.7 101 1235.3 101 1212.8 101C1190.3 101 1167.7 101 1145.2 101C1122.7 101 1100.3 101 1078 101C1055.7 101 1033.3 101 1010.8 101C988.3 101 965.7 101 943.2 101C920.7 101 898.3 101 875.8 101C853.3 101 830.7 101 808.2 101C785.7 101 763.3 101 741 101C718.7 101 696.3 101 673.8 101C651.3 101 628.7 101 606.2 101C583.7 101 561.3 101 539 101C516.7 101 494.3 101 471.8 101C449.3 101 426.7 101 404.2 101C381.7 101 359.3 101 336.8 101C314.3 101 291.7 101 269.2 101C246.7 101 224.3 101 202 101C179.7 101 157.3 101 134.8 101C112.3 101 89.7 101 67.2 101C44.7 101 22.3 101 11.2 101L0 101Z" fill="#bbf2fc"></path><path d="M0 70L11.2 69.2C22.3 68.3 44.7 66.7 67.2 64.5C89.7 62.3 112.3 59.7 134.8 61.7C157.3 63.7 179.7 70.3 202 73.5C224.3 76.7 246.7 76.3 269.2 74.5C291.7 72.7 314.3 69.3 336.8 69.3C359.3 69.3 381.7 72.7 404.2 71.2C426.7 69.7 449.3 63.3 471.8 60.3C494.3 57.3 516.7 57.7 539 60.8C561.3 64 583.7 70 606.2 72C628.7 74 651.3 72 673.8 69.2C696.3 66.3 718.7 62.7 741 60.7C763.3 58.7 785.7 58.3 808.2 61.2C830.7 64 853.3 70 875.8 73.2C898.3 76.3 920.7 76.7 943.2 76.7C965.7 76.7 988.3 76.3 1010.8 73C1033.3 69.7 1055.7 63.3 1078 60.7C1100.3 58 1122.7 59 1145.2 60.5C1167.7 62 1190.3 64 1212.8 66.3C1235.3 68.7 1257.7 71.3 1268.8 72.7L1280 74L1280 101L1268.8 101C1257.7 101 1235.3 101 1212.8 101C1190.3 101 1167.7 101 1145.2 101C1122.7 101 1100.3 101 1078 101C1055.7 101 1033.3 101 1010.8 101C988.3 101 965.7 101 943.2 101C920.7 101 898.3 101 875.8 101C853.3 101 830.7 101 808.2 101C785.7 101 763.3 101 741 101C718.7 101 696.3 101 673.8 101C651.3 101 628.7 101 606.2 101C583.7 101 561.3 101 539 101C516.7 101 494.3 101 471.8 101C449.3 101 426.7 101 404.2 101C381.7 101 359.3 101 336.8 101C314.3 101 291.7 101 269.2 101C246.7 101 224.3 101 202 101C179.7 101 157.3 101 134.8 101C112.3 101 89.7 101 67.2 101C44.7 101 22.3 101 11.2 101L0 101Z" fill="#caf5fd"></path><path d="M0 82L11.2 81.5C22.3 81 44.7 80 67.2 80C89.7 80 112.3 81 134.8 78.7C157.3 76.3 179.7 70.7 202 70.5C224.3 70.3 246.7 75.7 269.2 76C291.7 76.3 314.3 71.7 336.8 71C359.3 70.3 381.7 73.7 404.2 75.8C426.7 78 449.3 79 471.8 77C494.3 75 516.7 70 539 67.3C561.3 64.7 583.7 64.3 606.2 64.5C628.7 64.7 651.3 65.3 673.8 68.3C696.3 71.3 718.7 76.7 741 79C763.3 81.3 785.7 80.7 808.2 77.8C830.7 75 853.3 70 875.8 69.5C898.3 69 920.7 73 943.2 75.7C965.7 78.3 988.3 79.7 1010.8 78.2C1033.3 76.7 1055.7 72.3 1078 71.8C1100.3 71.3 1122.7 74.7 1145.2 76C1167.7 77.3 1190.3 76.7 1212.8 76.8C1235.3 77 1257.7 78 1268.8 78.5L1280 79L1280 101L1268.8 101C1257.7 101 1235.3 101 1212.8 101C1190.3 101 1167.7 101 1145.2 101C1122.7 101 1100.3 101 1078 101C1055.7 101 1033.3 101 1010.8 101C988.3 101 965.7 101 943.2 101C920.7 101 898.3 101 875.8 101C853.3 101 830.7 101 808.2 101C785.7 101 763.3 101 741 101C718.7 101 696.3 101 673.8 101C651.3 101 628.7 101 606.2 101C583.7 101 561.3 101 539 101C516.7 101 494.3 101 471.8 101C449.3 101 426.7 101 404.2 101C381.7 101 359.3 101 336.8 101C314.3 101 291.7 101 269.2 101C246.7 101 224.3 101 202 101C179.7 101 157.3 101 134.8 101C112.3 101 89.7 101 67.2 101C44.7 101 22.3 101 11.2 101L0 101Z" fill="#d8f7fd"></path><path d="M0 74L11.2 76C22.3 78 44.7 82 67.2 83.8C89.7 85.7 112.3 85.3 134.8 83.5C157.3 81.7 179.7 78.3 202 77.7C224.3 77 246.7 79 269.2 78.5C291.7 78 314.3 75 336.8 75.8C359.3 76.7 381.7 81.3 404.2 82.3C426.7 83.3 449.3 80.7 471.8 80.7C494.3 80.7 516.7 83.3 539 83.7C561.3 84 583.7 82 606.2 80.5C628.7 79 651.3 78 673.8 78.8C696.3 79.7 718.7 82.3 741 83.5C763.3 84.7 785.7 84.3 808.2 82.5C830.7 80.7 853.3 77.3 875.8 77.2C898.3 77 920.7 80 943.2 80C965.7 80 988.3 77 1010.8 77C1033.3 77 1055.7 80 1078 81.8C1100.3 83.7 1122.7 84.3 1145.2 82.5C1167.7 80.7 1190.3 76.3 1212.8 74.3C1235.3 72.3 1257.7 72.7 1268.8 72.8L1280 73L1280 101L1268.8 101C1257.7 101 1235.3 101 1212.8 101C1190.3 101 1167.7 101 1145.2 101C1122.7 101 1100.3 101 1078 101C1055.7 101 1033.3 101 1010.8 101C988.3 101 965.7 101 943.2 101C920.7 101 898.3 101 875.8 101C853.3 101 830.7 101 808.2 101C785.7 101 763.3 101 741 101C718.7 101 696.3 101 673.8 101C651.3 101 628.7 101 606.2 101C583.7 101 561.3 101 539 101C516.7 101 494.3 101 471.8 101C449.3 101 426.7 101 404.2 101C381.7 101 359.3 101 336.8 101C314.3 101 291.7 101 269.2 101C246.7 101 224.3 101 202 101C179.7 101 157.3 101 134.8 101C112.3 101 89.7 101 67.2 101C44.7 101 22.3 101 11.2 101L0 101Z" fill="#e5fafe"></path><path d="M0 89L11.2 87.3C22.3 85.7 44.7 82.3 67.2 82.2C89.7 82 112.3 85 134.8 85.8C157.3 86.7 179.7 85.3 202 83.8C224.3 82.3 246.7 80.7 269.2 80.8C291.7 81 314.3 83 336.8 83C359.3 83 381.7 81 404.2 79.8C426.7 78.7 449.3 78.3 471.8 78.8C494.3 79.3 516.7 80.7 539 81.5C561.3 82.3 583.7 82.7 606.2 84.3C628.7 86 651.3 89 673.8 88.8C696.3 88.7 718.7 85.3 741 84.8C763.3 84.3 785.7 86.7 808.2 88.3C830.7 90 853.3 91 875.8 90.8C898.3 90.7 920.7 89.3 943.2 87C965.7 84.7 988.3 81.3 1010.8 81.7C1033.3 82 1055.7 86 1078 86.7C1100.3 87.3 1122.7 84.7 1145.2 83.3C1167.7 82 1190.3 82 1212.8 82.7C1235.3 83.3 1257.7 84.7 1268.8 85.3L1280 86L1280 101L1268.8 101C1257.7 101 1235.3 101 1212.8 101C1190.3 101 1167.7 101 1145.2 101C1122.7 101 1100.3 101 1078 101C1055.7 101 1033.3 101 1010.8 101C988.3 101 965.7 101 943.2 101C920.7 101 898.3 101 875.8 101C853.3 101 830.7 101 808.2 101C785.7 101 763.3 101 741 101C718.7 101 696.3 101 673.8 101C651.3 101 628.7 101 606.2 101C583.7 101 561.3 101 539 101C516.7 101 494.3 101 471.8 101C449.3 101 426.7 101 404.2 101C381.7 101 359.3 101 336.8 101C314.3 101 291.7 101 269.2 101C246.7 101 224.3 101 202 101C179.7 101 157.3 101 134.8 101C112.3 101 89.7 101 67.2 101C44.7 101 22.3 101 11.2 101L0 101Z" fill="#f2fcfe"></path><path d="M0 90L11.2 90.8C22.3 91.7 44.7 93.3 67.2 94C89.7 94.7 112.3 94.3 134.8 94C157.3 93.7 179.7 93.3 202 92C224.3 90.7 246.7 88.3 269.2 88.2C291.7 88 314.3 90 336.8 91.3C359.3 92.7 381.7 93.3 404.2 94C426.7 94.7 449.3 95.3 471.8 94C494.3 92.7 516.7 89.3 539 87.8C561.3 86.3 583.7 86.7 606.2 86.7C628.7 86.7 651.3 86.3 673.8 87C696.3 87.7 718.7 89.3 741 89.8C763.3 90.3 785.7 89.7 808.2 89.5C830.7 89.3 853.3 89.7 875.8 90.5C898.3 91.3 920.7 92.7 943.2 93.5C965.7 94.3 988.3 94.7 1010.8 94C1033.3 93.3 1055.7 91.7 1078 91.2C1100.3 90.7 1122.7 91.3 1145.2 92.2C1167.7 93 1190.3 94 1212.8 94.3C1235.3 94.7 1257.7 94.3 1268.8 94.2L1280 94L1280 101L1268.8 101C1257.7 101 1235.3 101 1212.8 101C1190.3 101 1167.7 101 1145.2 101C1122.7 101 1100.3 101 1078 101C1055.7 101 1033.3 101 1010.8 101C988.3 101 965.7 101 943.2 101C920.7 101 898.3 101 875.8 101C853.3 101 830.7 101 808.2 101C785.7 101 763.3 101 741 101C718.7 101 696.3 101 673.8 101C651.3 101 628.7 101 606.2 101C583.7 101 561.3 101 539 101C516.7 101 494.3 101 471.8 101C449.3 101 426.7 101 404.2 101C381.7 101 359.3 101 336.8 101C314.3 101 291.7 101 269.2 101C246.7 101 224.3 101 202 101C179.7 101 157.3 101 134.8 101C112.3 101 89.7 101 67.2 101C44.7 101 22.3 101 11.2 101L0 101Z" fill="#ffffff"></path></svg>